<svg t="1725595377178" class="icon" viewBox="0 0 1024 1024" version="1.1" xmlns="http://www.w3.org/2000/svg" p-id="6975" width="32" height="32"><path d="M792.5 367.23V749.55c0 16.53 0.09 33.06 0 49.59-0.02 2.99-0.21 5.95-0.61 8.91 0.36-2.66 0.71-5.32 1.07-7.98a63.996 63.996 0 0 1-4.26 15.23c1.01-2.39 2.02-4.78 3.02-7.17-2.08 4.76-4.69 9.2-7.84 13.33l4.69-6.07a64.622 64.622 0 0 1-10.87 10.87l6.07-4.69a63.993 63.993 0 0 1-13.33 7.84c2.39-1.01 4.78-2.02 7.17-3.02-4.9 2.05-9.97 3.47-15.23 4.26 2.66-0.36 5.32-0.71 7.98-1.07-6.89 0.93-13.97 0.61-20.9 0.61H256.27c-6.31 0-12.62 0.03-18.93 0-3.04-0.01-6.04-0.2-9.05-0.61 2.66 0.36 5.32 0.71 7.98 1.07a63.996 63.996 0 0 1-15.23-4.26c2.39 1.01 4.78 2.02 7.17 3.02-4.76-2.08-9.2-4.69-13.33-7.84l6.07 4.69a64.622 64.622 0 0 1-10.87-10.87l4.69 6.07a63.993 63.993 0 0 1-7.84-13.33c1.01 2.39 2.02 4.78 3.02 7.17-2.05-4.9-3.47-9.97-4.26-15.23 0.36 2.66 0.71 5.32 1.07 7.98-0.99-7.35-0.61-14.94-0.61-22.34v-41.13-61.97-76.48-83.68-84.49-78.94-66.06-46.99c0-6.95-0.02-13.9 0-20.86 0.01-3.06 0.2-6.09 0.61-9.13-0.36 2.66-0.71 5.32-1.07 7.98 0.79-5.25 2.21-10.33 4.26-15.23-1.01 2.39-2.02 4.78-3.02 7.17 2.08-4.76 4.69-9.2 7.84-13.33l-4.69 6.07c3.19-4.05 6.81-7.68 10.87-10.87l-6.07 4.69c4.13-3.15 8.57-5.77 13.33-7.84-2.39 1.01-4.78 2.02-7.17 3.02 4.9-2.05 9.97-3.47 15.23-4.26-2.66 0.36-5.32 0.71-7.98 1.07 6-0.81 12.08-0.61 18.13-0.61h358.01c17.24 0 34.49 0.22 51.73 0h0.73c7.69 0 15.77-3.35 21.21-8.79 5.2-5.2 9.12-13.74 8.79-21.21-0.73-16.25-13.18-30-30-30H260.63c-7.7 0-15.4-0.02-23.1 0-15.98 0.04-31.83 4.1-45.73 12.01-20.54 11.69-36.21 31.99-42.41 54.77-2.99 10.99-3.2 21.93-3.2 33.11V797.64c0 32.32 16.05 62.24 43.65 79.35 16.2 10.04 34.62 13.18 53.31 13.18h513.99c1.52 0 3.04 0.01 4.56 0 8.77-0.05 17.89-1.22 26.28-3.86 12.8-4.03 23.34-10.31 33.61-18.77 3.27-2.69 6.23-5.73 8.89-9.02 3.98-4.93 7.95-9.95 10.92-15.57 6.49-12.24 9.71-24.5 10.9-38.23 0.26-2.95 0.23-5.9 0.23-8.85V765.3v-54.43-69.7-76.64-74.18-63.39-43.93-15.81c0-7.69-3.35-15.77-8.79-21.21-5.2-5.2-13.74-9.12-21.21-8.79-16.28 0.73-30.03 13.19-30.03 30.01z" fill="#231815" p-id="6976"></path><path d="M826.61 163.31c-1.78 1.7-3.56 3.4-5.35 5.1-4.85 4.63-9.7 9.25-14.55 13.88-7.18 6.84-14.35 13.68-21.53 20.53-8.78 8.38-17.57 16.75-26.35 25.13-9.59 9.15-19.19 18.3-28.78 27.44L701 283.09c-9.03 8.61-18.06 17.22-27.08 25.83-7.63 7.27-15.26 14.55-22.89 21.82-5.49 5.23-10.97 10.46-16.46 15.69-2.6 2.48-5.21 4.95-7.81 7.44-0.11 0.1-0.22 0.21-0.33 0.31-2.93 2.72-4.99 5.94-6.2 9.65-1.88 3.58-2.74 7.43-2.58 11.56-0.16 4.13 0.71 7.98 2.58 11.56 1.21 3.72 3.28 6.94 6.2 9.65l6.07 4.69c4.68 2.71 9.73 4.08 15.14 4.1 2.66-0.36 5.32-0.71 7.98-1.07 5.08-1.43 9.49-4 13.24-7.72 1.78-1.7 3.56-3.4 5.35-5.1 4.85-4.63 9.7-9.25 14.55-13.88 7.18-6.84 14.35-13.68 21.53-20.53 8.78-8.38 17.57-16.75 26.35-25.13 9.59-9.15 19.19-18.3 28.78-27.44l29.05-27.7c9.03-8.61 18.06-17.22 27.08-25.83 7.63-7.27 15.26-14.55 22.89-21.82 5.49-5.23 10.97-10.46 16.46-15.69 2.6-2.48 5.21-4.95 7.81-7.44 0.11-0.1 0.22-0.21 0.33-0.31 2.93-2.72 4.99-5.94 6.2-9.65 1.88-3.58 2.74-7.43 2.58-11.56 0.16-4.13-0.71-7.98-2.58-11.56-1.21-3.72-3.28-6.94-6.2-9.65l-6.07-4.69c-4.68-2.71-9.73-4.08-15.14-4.1-2.66 0.36-5.32 0.71-7.98 1.07-5.09 1.43-9.5 4-13.24 7.72zM445.24 334.44c-4.37 0.04-8.74 0.07-13.11 0.11l-31.49 0.27c-12.65 0.11-25.31 0.21-37.96 0.32-11.01 0.09-22.01 0.19-33.02 0.28-5.31 0.04-10.62 0.06-15.92 0.13h-0.22c-4.13-0.16-7.98 0.71-11.56 2.58-3.72 1.21-6.94 3.28-9.65 6.2-2.93 2.72-4.99 5.94-6.2 9.65-1.88 3.58-2.74 7.43-2.58 11.56 0.36 2.66 0.71 5.32 1.07 7.98 1.43 5.08 4 9.49 7.72 13.24l6.07 4.69c4.68 2.71 9.73 4.08 15.14 4.1 4.37-0.04 8.74-0.07 13.11-0.11l31.49-0.27c12.65-0.11 25.31-0.21 37.96-0.32 11.01-0.09 22.01-0.19 33.02-0.28 5.31-0.04 10.62-0.06 15.92-0.13h0.22c4.13 0.16 7.98-0.71 11.56-2.58 3.72-1.21 6.94-3.28 9.65-6.2 2.93-2.72 4.99-5.94 6.2-9.65 1.88-3.58 2.74-7.43 2.58-11.56-0.36-2.66-0.71-5.32-1.07-7.98-1.43-5.08-4-9.49-7.72-13.24l-6.07-4.69c-4.68-2.72-9.73-4.09-15.14-4.1zM548.76 479.42l-6.25 0.06-17.02 0.15c-8.39 0.07-16.78 0.15-25.17 0.22l-30.59 0.27-33.62 0.3-33.82 0.3c-10.55 0.09-21.1 0.19-31.65 0.28l-26.74 0.24c-6.41 0.06-12.82 0.11-19.22 0.17-3.03 0.03-6.05 0.04-9.08 0.08h-0.39c-4.13-0.16-7.98 0.71-11.56 2.58-3.72 1.21-6.94 3.28-9.65 6.2-2.93 2.72-4.99 5.94-6.2 9.65-1.88 3.58-2.74 7.43-2.58 11.56 0.36 2.66 0.71 5.32 1.07 7.98 1.43 5.08 4 9.49 7.72 13.24l6.07 4.69c4.68 2.71 9.73 4.08 15.14 4.1l6.25-0.06 17.02-0.15c8.39-0.07 16.78-0.15 25.17-0.22l30.59-0.27 33.62-0.3 33.82-0.3c10.55-0.09 21.1-0.19 31.65-0.28l26.74-0.24c6.41-0.06 12.82-0.11 19.22-0.17 3.03-0.03 6.05-0.04 9.08-0.08h0.39c4.13 0.16 7.98-0.71 11.56-2.58 3.72-1.21 6.94-3.28 9.65-6.2 2.93-2.72 4.99-5.94 6.2-9.65 1.88-3.58 2.74-7.43 2.58-11.56-0.36-2.66-0.71-5.32-1.07-7.98-1.43-5.08-4-9.49-7.72-13.24l-6.07-4.69c-4.68-2.71-9.73-4.08-15.14-4.1zM665.18 636.06l-9.41 0.06-25.39 0.15c-12.6 0.07-25.19 0.15-37.79 0.22l-45.79 0.27-50.49 0.3-50.62 0.3c-15.84 0.09-31.68 0.19-47.52 0.28l-39.89 0.24c-9.63 0.06-19.26 0.11-28.88 0.17-4.53 0.03-9.06 0.03-13.59 0.08h-0.59c-7.72 0.05-15.74 3.31-21.21 8.79-2.93 2.72-4.99 5.94-6.2 9.65-1.88 3.58-2.74 7.43-2.58 11.56 0.35 7.76 2.9 15.81 8.79 21.21 5.85 5.37 13.1 8.83 21.21 8.79l9.41-0.06 25.39-0.15c12.6-0.07 25.19-0.15 37.79-0.22l45.79-0.27 50.49-0.3 50.62-0.3c15.84-0.09 31.68-0.19 47.52-0.28l39.89-0.24c9.63-0.06 19.26-0.11 28.88-0.17 4.53-0.03 9.06-0.03 13.59-0.08h0.59c7.72-0.05 15.74-3.31 21.21-8.79 2.93-2.72 4.99-5.94 6.2-9.65 1.88-3.58 2.74-7.43 2.58-11.56-0.35-7.76-2.9-15.81-8.79-21.21-5.85-5.37-13.1-8.84-21.21-8.79z" fill="#231815" p-id="6977"></path></svg>