<svg t="1725501879769" class="icon" viewBox="0 0 1024 1024" version="1.1" xmlns="http://www.w3.org/2000/svg" p-id="9380" width="18" height="18"><path d="M409.6 0c19.2 0 35.2 6.4 48.8 20 13.6 13.6 20 29.6 20 48.8v340.8c0 19.2-6.4 35.2-20 48.8s-29.6 20-48.8 20H68.8c-19.2 0-35.2-6.4-48.8-20S0 428 0 409.6V68.8c0-19.2 6.4-35.2 20-48.8S49.6 0 68.8 0h340.8z m546.4 0c19.2 0 35.2 6.4 48 20s20 29.6 20 48.8v340.8c0 19.2-6.4 35.2-20 48.8-12.8 13.6-28.8 20-48 20H614.4c-19.2 0-35.2-6.4-48.8-20s-20-29.6-20-48.8V68.8c0-19.2 6.4-35.2 20-48.8S596 0 614.4 0h341.6zM409.6 545.6c19.2 0 35.2 6.4 48.8 20s20 29.6 20 48.8v341.6c0 19.2-6.4 35.2-20 48s-29.6 20-48.8 20H68.8c-19.2 0-35.2-6.4-48.8-20-13.6-12.8-20-28.8-20-48V614.4c0-19.2 6.4-35.2 20-48.8s29.6-20 48.8-20h340.8z m546.4 0c19.2 0 35.2 6.4 48 20s20 29.6 20 48.8v341.6c0 19.2-6.4 35.2-20 48-12.8 12.8-28.8 20-48 20H614.4c-19.2 0-35.2-6.4-48.8-20-13.6-12.8-20-28.8-20-48V614.4c0-19.2 6.4-35.2 20-48.8s29.6-20 48.8-20h341.6z" p-id="9381"></path></svg>