<svg t="1725502608740" class="icon" viewBox="0 0 1024 1024" version="1.1" xmlns="http://www.w3.org/2000/svg" p-id="35112" width="32" height="32"><path d="M939.52 84.626a288.183 288.183 0 0 0-407.99 0l-129.244 129.17 68.023 68.023 129.17-129.243c71.753-71.68 192.804-79.287 272.018 0 79.287 79.36 71.68 200.338 0 272.091l-129.17 129.17 68.096 68.097 129.17-129.17a288.841 288.841 0 0 0-0.073-408.138zM424.74 871.643c-71.753 71.68-192.804 79.287-272.018 0-79.36-79.433-71.68-200.411 0-272.091l129.17-129.17-68.095-68.17-129.17 129.244a288.256 288.256 0 0 0 0 407.99 288.33 288.33 0 0 0 407.917 0l129.243-129.243-68.022-68.022L424.74 871.643zM176.495 108.544a10.679 10.679 0 0 0-15.068 0l-52.809 52.81a10.679 10.679 0 0 0 0 15.067l739.109 739.254c4.169 4.17 10.971 4.17 15.067 0l52.81-52.736a10.679 10.679 0 0 0 0-15.067l-739.11-739.255z" p-id="35113" fill="#ccc"></path></svg>