<svg t="1725864279543" class="icon" viewBox="0 0 1024 1024" version="1.1" xmlns="http://www.w3.org/2000/svg" p-id="1937" width="32" height="32"><path d="M989.866667 450.090667a894.037333 894.037333 0 0 0-183.466667-153.6l170.666667-170.453334a42.666667 42.666667 0 0 0 0-60.330666c-30.549333-30.549333-67.370667 12.074667-68.48 13.184L82.218667 904.874667a46.933333 46.933333 0 0 0 2.048 53.290666 42.666667 42.666667 0 0 0 60.330666 0l176.896-176.896a480.426667 480.426667 0 0 0 183.893334 40.064h12.8c181.589333 0 362.197333-127.317333 471.509333-247.466666a92.714667 92.714667 0 0 0 0.170667-123.776z m-293.845334 116.096a195.541333 195.541333 0 0 1-128 129.194666 183.466667 183.466667 0 0 1-132.266666-8.064 10.837333 10.837333 0 0 1-2.901334-17.408l237.226667-237.184a10.794667 10.794667 0 0 1 17.365333 2.858667 183.466667 183.466667 0 0 1 8.576 130.602667zM324.906667 571.733333a10.410667 10.410667 0 0 0 2.602666-10.24A183.850667 183.850667 0 0 1 320 512 192 192 0 0 1 512 320a182.442667 182.442667 0 0 1 49.493333 7.381333 10.410667 10.410667 0 0 0 10.24-2.645333l82.816-82.858667a10.837333 10.837333 0 0 0-4.266666-17.92A443.093333 443.093333 0 0 0 512 202.666667C328.533333 200.234667 145.066667 328.533333 34.688 450.090667a91.733333 91.733333 0 0 0-0.298667 123.733333 906.368 906.368 0 0 0 146.645334 129.28 10.922667 10.922667 0 0 0 13.909333-1.237333z" p-id="1938"></path></svg>