<svg t="1725502321164" class="icon" viewBox="0 0 1024 1024" version="1.1" xmlns="http://www.w3.org/2000/svg" p-id="13277" width="32" height="32"><path d="M924.78 337.61c-22.57-53.35-54.86-101.26-96-142.39-41.13-41.13-89.04-73.43-142.39-96C631.14 75.85 572.47 64 512 64c-60.47 0-119.14 11.85-174.39 35.22-53.35 22.57-101.26 54.86-142.39 96-41.13 41.13-73.43 89.04-96 142.39C75.85 392.86 64 451.53 64 512c0 60.47 11.85 119.14 35.22 174.39 22.57 53.35 54.86 101.26 96 142.39 41.13 41.13 89.04 73.43 142.39 96C392.86 948.15 451.53 960 512 960c60.47 0 119.14-11.85 174.39-35.22 53.35-22.57 101.26-54.86 142.39-96 41.13-41.13 73.43-89.04 96-142.39C948.15 631.14 960 572.47 960 512c0-60.47-11.85-119.14-35.22-174.39zM512 896c-27.32 0-59.23-38.83-83.27-101.33-6.02-15.64-11.46-32.41-16.32-50.09 32.06-3.14 65.3-4.79 98.93-4.79 34.09 0 67.77 1.69 100.23 4.91-4.85 17.64-10.29 34.36-16.29 49.97C571.23 857.17 539.32 896 512 896z m-0.67-220.21c-38.71 0-76.65 1.98-113.06 5.8-7.66-42.86-12.35-89.31-13.79-137.59h255.04c-1.44 48.33-6.14 94.82-13.82 137.72-36.8-3.9-75.19-5.93-114.37-5.93zM512 128c27.32 0 59.23 38.83 83.27 101.33 6.4 16.63 12.15 34.51 17.24 53.44-32.75 3.28-66.75 5-101.18 5-33.96 0-67.52-1.68-99.88-4.88 5.1-18.97 10.86-36.89 17.27-53.56C452.77 166.83 484.68 128 512 128z m-0.67 223.77c39.4 0 77.99-2.05 114.98-5.99 7.31 41.93 11.8 87.21 13.2 134.23H384.48c1.4-46.97 5.88-92.2 13.18-134.09 36.6 3.84 74.75 5.85 113.67 5.85zM320.45 480H129.33c5.56-67.04 28.41-129.25 64.07-182.14 40.4 16.84 88.29 30.1 140.87 39.25-7.71 44.92-12.41 93.11-13.82 142.89z m0 64c1.45 51.06 6.36 100.44 14.43 146.34-52.01 9.02-99.43 22.05-139.59 38.58-36.75-53.49-60.31-116.7-65.97-184.92h191.13z m383.1 0h191.12c-5.67 68.4-29.34 131.77-66.26 185.35-40.05-16.6-87.39-29.7-139.33-38.79 8.09-45.96 13.02-95.42 14.47-146.56z m0-64c-1.41-49.86-6.12-98.13-13.86-143.11 52.53-9.23 100.33-22.56 140.62-39.47 35.83 52.98 58.79 115.35 64.36 182.57H703.55zM788 245.28c-32.6 11.98-70.48 21.72-111.63 28.83-6.16-24.08-13.3-46.78-21.36-67.76-8.85-23.02-18.64-43.45-29.26-61.16 62.34 19.38 117.93 54.25 162.25 100.09zM398.25 145.2c-10.62 17.71-20.4 38.14-29.26 61.16-8.09 21.04-15.24 43.81-21.42 67.97-41.23-7.06-79.21-16.75-111.92-28.69 44.38-46.02 100.09-81.02 162.6-100.44zM238.22 780.99c32.36-11.6 69.75-21.02 110.24-27.91 5.97 22.89 12.83 44.52 20.54 64.56 8.85 23.02 18.64 43.45 29.26 61.16-61.32-19.05-116.1-53.09-160.04-97.81z m387.52 97.81c10.62-17.71 20.4-38.14 29.26-61.16 7.68-19.98 14.52-41.53 20.48-64.35 40.41 6.94 77.7 16.41 109.95 28.05-43.88 44.55-98.53 78.46-159.69 97.46z" p-id="13278" fill="#ccc"></path></svg>